# xmcd
#
# Track frame offsets: 
#        150
#        14075
#        35581
#        54561
#        82398
#        97923
#        119622
#        133868
#        151029
#        178073
#
# Disc length: 2620 seconds
#
# Revision: 1
# Processed by: cddbd v1.5.2PL0 Copyright (c) Steve Scherf et al.
# Submitted via: ExactAudioCopy v1.0b3
#
DISCID=890a3a0a
DTITLE=Graveyard - Hisingen Blues
DYEAR=2011
DGENRE=
TTITLE0=Ain't Fit To Live Here
TTITLE1=No Good, Mr Holden
TTITLE2=Hisingen Blues
TTITLE3=Uncomfortably Numb
TTITLE4=Buying Truth (Tack and Forlat)
TTITLE5=Longing
TTITLE6=Ungrateful Are The Dead
TTITLE7=Rss
TTITLE8=The Siren
TTITLE9=Cooking Brew
EXTD=
EXTT0=
EXTT1=
EXTT2=
EXTT3=
EXTT4=
EXTT5=
EXTT6=
EXTT7=
EXTT8=
EXTT9=
PLAYORDER=
